<svg xmlns="http://www.w3.org/2000/svg" width="2868" height="543" viewBox="0 0 2868 543"><path fill="#010101" d="M108.6 2.644v24.094H67.998v111.909H41.191V26.738H.579V2.644H108.6M183.363 47.334c19.241 0 33.035 12.239 33.035 33.025v58.288H191.14V86.771c0-11.265-7.187-15.928-15.153-15.928-7.387 0-13.994 4.078-18.852 10.1v57.704h-25.248V2.644h24.869v50.517c0 3.109-.39 6.997-.39 6.997 6.797-8.356 16.902-12.824 26.997-12.824M334.091 101.539h-66.249c1.36 9.905 9.126 17.871 20.401 17.871 7.376 0 14.373-3.108 17.871-9.131l26.228 2.725c-7.966 19.036-24.679 27.977-44.489 27.977-26.618 0-46.628-19.626-46.628-46.824 0-27.202 19.62-46.823 46.238-46.823 24.478 0 46.628 15.933 46.628 53.235v.97m-66.839-16.903h39.832c-1.359-8.935-8.936-16.322-19.621-16.322s-18.261 6.802-20.211 16.322zM514.325 138.647h-29.137l-11.654-37.108h-41.001l-10.875 37.108h-28.367l43.91-136.003h32.244l44.88 136.003M453.133 31.791h-.389L438.95 78.42h27.777l-13.594-46.629zM536.443 2.644h25.058v136.003h-25.058zM658.435 127.377c-4.467 7.386-14.963 13.604-27.787 13.604-24.479 0-43.13-19.626-43.13-46.824 0-27.202 18.462-46.823 42.94-46.823 13.604 0 23.899 6.217 28.367 13.794 0-2.914-.39-10.296-.39-16.903V2.644h25.259v136.003h-25.259v-11.27m-44.879-33.22c0 13.599 9.326 24.479 22.73 24.479 13.403 0 22.729-10.88 22.729-24.479 0-13.798-9.326-24.289-22.729-24.289-13.404 0-22.73 10.491-22.73 24.289zM769.711 74.531h-10.685c-12.824 0-18.651 6.022-18.651 21.565v42.551h-25.258V49.663h24.489v14.183c3.498-9.521 12.044-15.348 23.119-15.348 2.329 0 4.658.195 6.986.775v25.258M824.096 138.647h-25.259V71.033h-12.434v-21.37h37.693v88.984M810.302 2.644c9.136 0 16.322 7.387 16.322 16.323 0 9.131-7.186 16.127-16.322 16.127-8.936 0-16.122-6.996-16.122-16.127 0-8.936 7.186-16.323 16.122-16.323zM875.171 94.157c0 13.989 9.125 24.284 22.339 24.284 9.326 0 16.323-5.248 19.621-13.599l23.709 7.382c-5.838 17.682-23.319 28.757-43.52 28.757-26.427 0-47.408-19.626-47.408-46.824 0-27.202 20.981-46.823 47.408-46.823 20.201 0 37.682 11.264 43.52 28.946l-23.709 7.187c-3.298-8.156-10.295-13.599-19.621-13.599-13.214 0-22.339 10.301-22.339 24.289M1016.96 47.334c19.24 0 33.04 12.239 33.04 33.025v58.288h-25.26V86.771c0-11.265-7.19-15.928-15.15-15.928-7.39 0-13.997 4.078-18.855 10.1v57.704h-25.247V2.644h24.868v50.517c0 3.109-.39 6.997-.39 6.997 6.797-8.356 16.904-12.824 26.994-12.824M74.995 310.339c18.062 0 31.855-9.715 36.913-25.843h29.727c-7.967 32.06-35.944 50.712-66.64 50.712-40.021 0-70.917-29.342-70.917-70.333 0-40.996 30.896-70.332 70.917-70.332 30.696 0 58.673 18.651 66.64 50.706h-29.727c-5.058-16.122-18.851-25.838-36.913-25.838-25.648 0-42.75 19.431-42.75 45.464s17.102 45.464 42.75 45.464M161.213 288.384c0-27.202 21.17-46.823 47.598-46.823 26.428 0 47.598 19.621 47.598 46.823 0 27.198-21.17 46.824-47.598 46.824-26.428 0-47.598-19.626-47.598-46.824m25.259 0c0 13.794 9.125 24.284 22.339 24.284 13.014 0 22.15-10.49 22.15-24.284 0-13.987-9.136-24.289-22.15-24.289-13.214 0-22.339 10.301-22.339 24.289zM333.691 241.561c19.242 0 33.035 12.239 33.035 33.025v58.288h-25.258v-51.876c0-11.265-7.187-15.928-15.154-15.928-7.386 0-13.993 4.078-18.851 10.1v57.704h-25.248V243.89h24.668v3.498c0 3.109-.389 6.997-.389 6.997 6.807-8.356 16.902-12.824 27.197-12.824M429.055 210.086v33.804h19.242v21.37h-19.242v40.223c0 5.632 4.468 6.405 8.357 6.405 6.406 0 11.654-.579 11.654-.579v21.565s-12.234 1.164-19.621 1.164c-12.624 0-25.648-2.134-25.648-20.011V265.26h-13.984v-21.37h13.984v-33.804h25.258M562.692 295.766h-66.25c1.36 9.905 9.126 17.871 20.401 17.871 7.376 0 14.373-3.107 17.872-9.131l26.227 2.726c-7.966 19.035-24.678 27.977-44.489 27.977-26.618 0-46.628-19.626-46.628-46.824 0-27.202 19.621-46.823 46.238-46.823 24.479 0 46.629 15.933 46.629 53.235v.969m-66.839-16.902h39.831c-1.359-8.936-8.936-16.323-19.621-16.323s-18.261 6.802-20.21 16.323zM704.294 280.613c0-10.88-6.996-15.543-14.762-15.543-7.198 0-13.604 4.078-18.462 10.1v57.704h-25.259v-52.261c0-10.685-6.796-15.543-14.763-15.543-7.186 0-13.603 4.078-18.461 10.1v57.704h-25.248V243.89h24.668v3.498c0 3.109-.39 6.997-.39 6.997 6.608-8.161 16.513-12.824 26.618-12.824 13.214 0 23.509 5.632 28.556 16.122 7.388-10.295 17.493-16.122 29.927-16.122 19.231 0 32.835 12.239 32.835 33.025v58.288h-25.259v-52.261M785.254 366.873h-25.248V243.89h25.248v4.278c0 4.273-.379 6.217-.379 7.187 4.268-7.577 14.763-13.794 28.166-13.794 24.479 0 43.13 19.621 43.13 46.823 0 27.198-18.84 46.824-43.33 46.824-12.624 0-23.119-6.028-27.587-13.604v45.269m-.579-78.489c0 13.6 9.325 24.479 22.729 24.479s22.729-10.88 22.729-24.479c0-13.798-9.325-24.289-22.729-24.289s-22.729 10.491-22.729 24.289zM876.53 288.384c0-27.202 21.18-46.823 47.598-46.823 26.417 0 47.598 19.621 47.598 46.823 0 27.198-21.181 46.824-47.598 46.824-26.418 0-47.598-19.626-47.598-46.824m25.259 0c0 13.794 9.125 24.284 22.339 24.284 13.014 0 22.15-10.49 22.15-24.284 0-13.987-9.136-24.289-22.15-24.289-13.214 0-22.339 10.301-22.339 24.289zM1052.13 268.758h-10.69c-12.81 0-18.65 6.022-18.65 21.565v42.551h-25.248V243.89h24.478v14.183c3.49-9.521 12.05-15.348 23.12-15.348 2.33 0 4.66.195 6.99.775v25.258M1124.57 273.616c0-6.412-5.06-10.49-14.77-10.49-8.94 0-20.2 4.468-26.81 8.351l-9.9-19.036s16.51-10.88 38.07-10.88c20.21 0 38.67 9.326 38.67 32.835v58.478h-25.26v-8.357c-4.67 6.997-14.77 10.691-24.87 10.691-18.85 0-31.08-13.409-31.08-27.977 0-16.908 12.43-27.398 32.24-27.398h17.49c4.27 0 6.22-1.944 6.22-5.247v-.97m0 27.397v-6.411c-1.56 1.555-4.28 1.938-7.77 1.938h-9.52c-7.97 0-12.63 3.499-12.63 9.716 0 6.022 4.85 10.49 12.63 10.49 9.13 0 17.29-4.663 17.29-15.733zM1234.89 268.758h-10.69c-12.81 0-18.65 6.022-18.65 21.565v42.551h-25.24V243.89h24.47v14.183c3.49-9.521 12.05-15.348 23.12-15.348 2.33 0 4.66.195 6.99.775v25.258M1286.94 332.874h-6.4l-30.51-88.984h28.17l18.85 63.341 19.04-63.341h27.39l-35.56 102.972c-4.46 13.019-11.46 20.011-27.77 20.011h-17.49v-21.175h12.43c5.06 0 8.17-1.945 9.92-6.997l1.93-5.827M121.034 527.101H91.897l-11.665-37.107h-40.99l-10.875 37.107H0l43.91-136.003h32.244l44.88 136.003M59.842 420.246h-.389l-13.794 46.628h27.777l-13.594-46.628zM197.736 462.985h-10.685c-12.824 0-18.651 6.021-18.651 21.564V527.1h-25.258v-88.983h24.488V452.3c3.499-9.52 12.045-15.347 23.12-15.347 2.329 0 4.657.194 6.986.773v25.259M253.469 404.312v33.806h19.241v21.37h-19.241v40.222c0 5.631 4.468 6.406 8.356 6.406 6.418 0 11.654-.579 11.654-.579v21.564s-12.233 1.164-19.62 1.164c-12.624 0-25.649-2.134-25.649-20.011v-48.767h-13.983v-21.37h13.983v-33.806h25.259M404.766 497.96l-26.807-67.03v96.171h-26.228V391.098h38.082l29.727 77.135 30.306-77.135h36.333v136.003h-26.818V430.93l-26.028 67.03h-28.567M519.54 494.461v-56.344h25.259v51.681c0 12.24 8.167 17.097 17.102 17.097 9.126 0 17.092-4.856 17.092-17.097v-51.681h25.069v56.344c0 18.651-14.763 34.974-42.161 34.974-27.197 0-42.361-16.323-42.361-34.974M686.602 465.319c-7.197-6.996-16.133-9.13-21.96-9.13-6.607 0-8.936 3.298-8.936 6.021 0 3.108 1.939 5.243 6.607 6.796l14.763 4.663c18.262 6.028 24.479 15.933 24.479 27.593 0 13.015-11.075 28.172-35.353 28.172-19.621 0-31.866-7.582-39.253-13.993l13.415-17.481c6.406 6.021 17.871 11.074 26.227 11.074 6.017 0 9.705-3.109 9.705-6.607 0-4.467-2.908-6.412-10.094-8.551l-15.153-4.468c-14.384-4.662-20.601-14.378-20.601-26.032 0-14.574 13.214-27.588 34.584-27.588 11.654 0 25.448 3.499 35.944 13.209l-14.374 16.322M814.601 489.993h-66.249c1.359 9.905 9.125 17.872 20.4 17.872 7.377 0 14.373-3.109 17.872-9.131l26.228 2.724c-7.966 19.036-24.679 27.977-44.489 27.977-26.618 0-46.629-19.626-46.629-46.822 0-27.203 19.621-46.824 46.239-46.824 24.478 0 46.628 15.932 46.628 53.235v.969m-66.839-16.903h39.832c-1.36-8.935-8.936-16.322-19.621-16.322s-18.262 6.802-20.211 16.322zM1069.43 474.84c0-10.879-7-15.543-14.76-15.543-7.2 0-13.61 4.079-18.47 10.101v57.703h-25.25V474.84c0-10.685-6.8-15.543-14.767-15.543-7.186 0-13.603 4.079-18.461 10.101v57.703h-25.259v-88.983h24.679v3.498c0 3.108-.39 6.997-.39 6.997 6.607-8.161 16.513-12.824 26.618-12.824 13.21 0 23.51 5.632 28.56 16.123 7.38-10.296 17.49-16.123 29.92-16.123 19.23 0 32.84 12.239 32.84 33.023v58.289h-25.26V474.84M837.878 494.461v-56.344h25.259v51.681c0 12.24 8.166 17.097 17.102 17.097 9.126 0 17.092-4.856 17.092-17.097v-51.681H922.4v56.344c0 18.651-14.763 34.974-42.161 34.974-27.197 0-42.361-16.323-42.361-34.974"/><path d="M2867.4 436.824v107.998l-691.19-410.395-691.2 410.395V436.824l691.2-410.396 691.19 410.396"/></svg>