<svg xmlns="http://www.w3.org/2000/svg" width="1532.322" height="152.875" viewBox="0 0 1532.322 152.875"><path fill="#010101" d="M108.6 12.644v24.094H67.998v111.909H41.191V36.738H.579V12.644H108.6M183.363 57.334c19.241 0 33.035 12.239 33.035 33.025v58.288H191.14V96.771c0-11.265-7.187-15.928-15.153-15.928-7.387 0-13.994 4.078-18.852 10.1v57.704h-25.248V12.644h24.869v50.517c0 3.109-.39 6.997-.39 6.997 6.797-8.356 16.902-12.824 26.997-12.824M334.091 111.539h-66.249c1.36 9.905 9.126 17.871 20.401 17.871 7.376 0 14.373-3.108 17.871-9.131l26.228 2.725c-7.966 19.036-24.679 27.977-44.489 27.977-26.618 0-46.628-19.626-46.628-46.824 0-27.202 19.62-46.823 46.238-46.823 24.478 0 46.628 15.933 46.628 53.235v.97m-66.839-16.903h39.832c-1.359-8.935-8.936-16.322-19.621-16.322s-18.261 6.802-20.211 16.322zM514.325 148.647h-29.137l-11.654-37.108h-41.001l-10.875 37.108h-28.367l43.91-136.003h32.244l44.88 136.003M453.133 41.791h-.389L438.95 88.42h27.777l-13.594-46.629zM536.443 12.644h25.058v136.003h-25.058zM658.435 137.377c-4.467 7.386-14.963 13.604-27.787 13.604-24.479 0-43.13-19.626-43.13-46.824 0-27.202 18.462-46.823 42.94-46.823 13.604 0 23.899 6.217 28.367 13.794 0-2.914-.39-10.296-.39-16.903V12.644h25.259v136.003h-25.259v-11.27m-44.879-33.22c0 13.599 9.326 24.479 22.73 24.479 13.403 0 22.729-10.88 22.729-24.479 0-13.798-9.326-24.289-22.729-24.289-13.404 0-22.73 10.491-22.73 24.289zM769.711 84.531h-10.685c-12.824 0-18.651 6.022-18.651 21.565v42.551h-25.258V59.663h24.489v14.183c3.498-9.521 12.044-15.348 23.119-15.348 2.329 0 4.658.195 6.986.775v25.258M824.096 148.647h-25.259V81.033h-12.434v-21.37h37.693v88.984M810.302 12.644c9.136 0 16.322 7.387 16.322 16.323 0 9.131-7.186 16.127-16.322 16.127-8.936 0-16.122-6.996-16.122-16.127 0-8.936 7.186-16.323 16.122-16.323zM875.171 104.157c0 13.989 9.125 24.284 22.339 24.284 9.326 0 16.323-5.248 19.621-13.599l23.709 7.382c-5.838 17.682-23.319 28.757-43.52 28.757-26.427 0-47.408-19.626-47.408-46.824 0-27.202 20.981-46.823 47.408-46.823 20.201 0 37.682 11.264 43.52 28.946l-23.709 7.187c-3.298-8.156-10.295-13.599-19.621-13.599-13.214 0-22.339 10.301-22.339 24.289M1016.96 57.334c19.24 0 33.04 12.239 33.04 33.025v58.288h-25.26V96.771c0-11.265-7.19-15.928-15.15-15.928-7.39 0-13.997 4.078-18.855 10.1v57.704h-25.247V12.644h24.868v50.517c0 3.109-.39 6.997-.39 6.997 6.797-8.356 16.904-12.824 26.994-12.824"/><path d="M1532.322 121.027v31.848L1328.49 31.85l-203.837 121.025v-31.848L1328.49 0l203.832 121.027"/></svg>