<?xml version="1.0" encoding="utf-8"?>
<!-- Generator: Adobe Illustrator 16.0.4, SVG Export Plug-In . SVG Version: 6.00 Build 0)  -->
<!DOCTYPE svg PUBLIC "-//W3C//DTD SVG 1.1//EN" "http://www.w3.org/Graphics/SVG/1.1/DTD/svg11.dtd">
<svg version="1.1" id="Layer_1" xmlns="http://www.w3.org/2000/svg" xmlns:xlink="http://www.w3.org/1999/xlink" x="0px" y="0px"
	 width="1532.322px" height="152.875px" viewBox="0 0 1532.322 152.875" enable-background="new 0 0 1532.322 152.875"
	 xml:space="preserve">
<polyline fill="#010101" points="108.6,12.644 108.6,36.738 67.998,36.738 67.998,148.647 41.191,148.647 41.191,36.738 
	0.579,36.738 0.579,12.644 108.6,12.644 "/>
<path fill="#010101" d="M183.363,57.334c19.241,0,33.035,12.239,33.035,33.025v58.288H191.14V96.771
	c0-11.265-7.187-15.928-15.153-15.928c-7.387,0-13.994,4.078-18.852,10.1v57.704h-25.248V12.644h24.869v50.517
	c0,3.109-0.39,6.997-0.39,6.997C163.163,61.802,173.268,57.334,183.363,57.334"/>
<path fill="#010101" d="M334.091,111.539h-66.249c1.36,9.905,9.126,17.871,20.401,17.871c7.376,0,14.373-3.108,17.871-9.131
	l26.228,2.725c-7.966,19.036-24.679,27.977-44.489,27.977c-26.618,0-46.628-19.626-46.628-46.824
	c0-27.202,19.62-46.823,46.238-46.823c24.478,0,46.628,15.933,46.628,53.235V111.539 M267.252,94.636h39.832
	c-1.359-8.935-8.936-16.322-19.621-16.322S269.202,85.116,267.252,94.636z"/>
<path fill="#010101" d="M514.325,148.647h-29.137l-11.654-37.108h-41.001l-10.875,37.108h-28.367l43.91-136.003h32.244
	L514.325,148.647 M453.133,41.791h-0.389L438.95,88.42h27.777L453.133,41.791z"/>
<rect x="536.443" y="12.644" fill="#010101" width="25.058" height="136.003"/>
<path fill="#010101" d="M658.435,137.377c-4.467,7.386-14.963,13.604-27.787,13.604c-24.479,0-43.13-19.626-43.13-46.824
	c0-27.202,18.462-46.823,42.94-46.823c13.604,0,23.899,6.217,28.367,13.794c0-2.914-0.39-10.296-0.39-16.903V12.644h25.259v136.003
	h-25.259V137.377 M613.556,104.157c0,13.599,9.326,24.479,22.73,24.479c13.403,0,22.729-10.88,22.729-24.479
	c0-13.798-9.326-24.289-22.729-24.289C622.882,79.868,613.556,90.359,613.556,104.157z"/>
<path fill="#010101" d="M769.711,84.531h-10.685c-12.824,0-18.651,6.022-18.651,21.565v42.551h-25.258V59.663h24.489v14.183
	c3.498-9.521,12.044-15.348,23.119-15.348c2.329,0,4.658,0.195,6.986,0.775V84.531"/>
<path fill="#010101" d="M824.096,148.647h-25.259V81.033h-12.434v-21.37h37.693V148.647 M810.302,12.644
	c9.136,0,16.322,7.387,16.322,16.323c0,9.131-7.186,16.127-16.322,16.127c-8.936,0-16.122-6.996-16.122-16.127
	C794.18,20.031,801.366,12.644,810.302,12.644z"/>
<path fill="#010101" d="M875.171,104.157c0,13.989,9.125,24.284,22.339,24.284c9.326,0,16.323-5.248,19.621-13.599l23.709,7.382
	c-5.838,17.682-23.319,28.757-43.52,28.757c-26.427,0-47.408-19.626-47.408-46.824c0-27.202,20.981-46.823,47.408-46.823
	c20.201,0,37.682,11.264,43.52,28.946l-23.709,7.187c-3.298-8.156-10.295-13.599-19.621-13.599
	C884.296,79.868,875.171,90.169,875.171,104.157"/>
<path fill="#010101" d="M1016.96,57.334c19.24,0,33.04,12.239,33.04,33.025v58.288h-25.26V96.771c0-11.265-7.19-15.928-15.15-15.928
	c-7.39,0-13.997,4.078-18.855,10.1v57.704h-25.247V12.644h24.868v50.517c0,3.109-0.39,6.997-0.39,6.997
	C996.763,61.802,1006.87,57.334,1016.96,57.334"/>
<polyline points="1532.322,121.027 1532.322,152.875 1328.49,31.85 1124.653,152.875 1124.653,121.027 1328.49,0 1532.322,121.027 
	"/>
</svg>
